<mxfile host="app.diagrams.net" agent="Mozilla/5.0 (Windows NT 10.0; Win64; x64) AppleWebKit/537.36 (KHTML, like Gecko) Chrome/140.0.0.0 Safari/537.36" version="28.2.3">
  <diagram name="PÃ¡gina-1" id="-CDsvp3isGMU1Eed85SX">
    <mxGraphModel dx="1200" dy="1177" grid="1" gridSize="10" guides="1" tooltips="1" connect="1" arrows="1" fold="1" page="1" pageScale="1" pageWidth="1169" pageHeight="827" math="0" shadow="0">
      <root>
        <mxCell id="0" />
        <mxCell id="1" parent="0" />
        <mxCell id="3mktC0v0Y3BB0U0McoGT-14" value="&lt;font&gt;&lt;b&gt;FORNECEDOR&lt;/b&gt;&lt;/font&gt;" style="whiteSpace=wrap;html=1;align=center;fontSize=16;fillColor=#dae8fc;strokeColor=#6c8ebf;" vertex="1" parent="1">
          <mxGeometry x="200" y="20" width="150" height="60" as="geometry" />
        </mxCell>
        <mxCell id="3mktC0v0Y3BB0U0McoGT-15" value="&lt;font&gt;&lt;b&gt;PRODUTO&lt;/b&gt;&lt;/font&gt;" style="whiteSpace=wrap;html=1;align=center;fontSize=16;fillColor=#ffe6cc;strokeColor=#d79b00;" vertex="1" parent="1">
          <mxGeometry x="200" y="340" width="150" height="60" as="geometry" />
        </mxCell>
        <mxCell id="3mktC0v0Y3BB0U0McoGT-18" value="&lt;font&gt;&lt;b&gt;LOJA&lt;/b&gt;&lt;/font&gt;" style="whiteSpace=wrap;html=1;align=center;fontSize=16;fillColor=#d5e8d4;strokeColor=#82b366;" vertex="1" parent="1">
          <mxGeometry x="820" y="340" width="150" height="60" as="geometry" />
        </mxCell>
        <mxCell id="3mktC0v0Y3BB0U0McoGT-20" value="&lt;span style=&quot;font-weight: 700;&quot;&gt;nome_fornecedor&lt;/span&gt;" style="ellipse;whiteSpace=wrap;html=1;align=center;fontSize=16;fillColor=#dae8fc;strokeColor=#6c8ebf;" vertex="1" parent="1">
          <mxGeometry x="20" y="130" width="150" height="60" as="geometry" />
        </mxCell>
        <mxCell id="3mktC0v0Y3BB0U0McoGT-21" value="&lt;font&gt;&lt;b&gt;identificador&lt;/b&gt;&lt;/font&gt;" style="ellipse;whiteSpace=wrap;html=1;align=center;fontStyle=4;fontSize=16;fillColor=#1ba1e2;strokeColor=#006EAF;fontColor=#ffffff;" vertex="1" parent="1">
          <mxGeometry x="20" y="20" width="150" height="60" as="geometry" />
        </mxCell>
        <mxCell id="3mktC0v0Y3BB0U0McoGT-28" value="&lt;span style=&quot;font-weight: 700;&quot;&gt;nome&lt;/span&gt;" style="ellipse;whiteSpace=wrap;html=1;align=center;spacing=2;verticalAlign=middle;fontSize=16;fillColor=#ffe6cc;strokeColor=#d79b00;" vertex="1" parent="1">
          <mxGeometry x="20" y="439" width="150" height="60" as="geometry" />
        </mxCell>
        <mxCell id="3mktC0v0Y3BB0U0McoGT-29" value="&lt;span style=&quot;font-weight: 700;&quot;&gt;descricao&lt;/span&gt;" style="ellipse;whiteSpace=wrap;html=1;align=center;spacing=2;verticalAlign=middle;fontSize=16;fillColor=#ffe6cc;strokeColor=#d79b00;" vertex="1" parent="1">
          <mxGeometry x="20" y="528" width="150" height="60" as="geometry" />
        </mxCell>
        <mxCell id="3mktC0v0Y3BB0U0McoGT-36" style="edgeStyle=orthogonalEdgeStyle;rounded=0;orthogonalLoop=1;jettySize=auto;html=1;entryX=0.529;entryY=1.031;entryDx=0;entryDy=0;entryPerimeter=0;endArrow=none;endFill=0;fillColor=#ffe6cc;strokeColor=#d79b00;" edge="1" parent="1" source="3mktC0v0Y3BB0U0McoGT-30" target="3mktC0v0Y3BB0U0McoGT-15">
          <mxGeometry relative="1" as="geometry">
            <mxPoint x="280" y="312" as="targetPoint" />
          </mxGeometry>
        </mxCell>
        <mxCell id="3mktC0v0Y3BB0U0McoGT-30" value="&lt;span style=&quot;font-weight: 700;&quot;&gt;&lt;font&gt;preco_de_venda&lt;/font&gt;&lt;/span&gt;" style="ellipse;whiteSpace=wrap;html=1;align=center;spacing=2;verticalAlign=middle;fontSize=16;fillColor=#ffe6cc;strokeColor=#d79b00;" vertex="1" parent="1">
          <mxGeometry x="20" y="616" width="150" height="60" as="geometry" />
        </mxCell>
        <mxCell id="3mktC0v0Y3BB0U0McoGT-37" style="edgeStyle=orthogonalEdgeStyle;rounded=0;orthogonalLoop=1;jettySize=auto;html=1;entryX=0.791;entryY=1.06;entryDx=0;entryDy=0;entryPerimeter=0;endArrow=none;endFill=0;fillColor=#ffe6cc;strokeColor=#d79b00;" edge="1" parent="1" source="3mktC0v0Y3BB0U0McoGT-31" target="3mktC0v0Y3BB0U0McoGT-15">
          <mxGeometry relative="1" as="geometry">
            <mxPoint x="320" y="312" as="targetPoint" />
          </mxGeometry>
        </mxCell>
        <mxCell id="3mktC0v0Y3BB0U0McoGT-31" value="&lt;span&gt;&lt;b&gt;quantidade&lt;/b&gt;&lt;/span&gt;" style="ellipse;whiteSpace=wrap;html=1;align=center;spacing=2;verticalAlign=middle;fontSize=16;fillColor=#ffe6cc;strokeColor=#d79b00;" vertex="1" parent="1">
          <mxGeometry x="20" y="705" width="150" height="60" as="geometry" />
        </mxCell>
        <mxCell id="3mktC0v0Y3BB0U0McoGT-33" value="" style="edgeStyle=orthogonalEdgeStyle;rounded=0;orthogonalLoop=1;jettySize=auto;html=1;endArrow=none;endFill=0;fillColor=#ffe6cc;strokeColor=#d79b00;" edge="1" parent="1" source="3mktC0v0Y3BB0U0McoGT-32" target="3mktC0v0Y3BB0U0McoGT-15">
          <mxGeometry relative="1" as="geometry">
            <Array as="points">
              <mxPoint x="190" y="282" />
              <mxPoint x="190" y="282" />
            </Array>
          </mxGeometry>
        </mxCell>
        <mxCell id="3mktC0v0Y3BB0U0McoGT-32" value="&lt;span&gt;&lt;b&gt;&lt;u&gt;identificador&lt;/u&gt;&lt;/b&gt;&lt;/span&gt;" style="ellipse;whiteSpace=wrap;html=1;align=center;spacing=2;verticalAlign=middle;fontSize=16;fillColor=#1ba1e2;strokeColor=#006EAF;fontColor=#ffffff;" vertex="1" parent="1">
          <mxGeometry x="20" y="350" width="150" height="60" as="geometry" />
        </mxCell>
        <mxCell id="3mktC0v0Y3BB0U0McoGT-34" style="edgeStyle=orthogonalEdgeStyle;rounded=0;orthogonalLoop=1;jettySize=auto;html=1;entryX=0.15;entryY=0.982;entryDx=0;entryDy=0;entryPerimeter=0;endArrow=none;endFill=0;fillColor=#ffe6cc;strokeColor=#d79b00;" edge="1" parent="1" source="3mktC0v0Y3BB0U0McoGT-28" target="3mktC0v0Y3BB0U0McoGT-15">
          <mxGeometry relative="1" as="geometry" />
        </mxCell>
        <mxCell id="3mktC0v0Y3BB0U0McoGT-35" style="edgeStyle=orthogonalEdgeStyle;rounded=0;orthogonalLoop=1;jettySize=auto;html=1;entryX=0.333;entryY=1;entryDx=0;entryDy=0;entryPerimeter=0;endArrow=none;endFill=0;fillColor=#ffe6cc;strokeColor=#d79b00;" edge="1" parent="1" source="3mktC0v0Y3BB0U0McoGT-29" target="3mktC0v0Y3BB0U0McoGT-15">
          <mxGeometry relative="1" as="geometry" />
        </mxCell>
        <mxCell id="3mktC0v0Y3BB0U0McoGT-40" style="edgeStyle=orthogonalEdgeStyle;rounded=0;orthogonalLoop=1;jettySize=auto;html=1;entryX=-0.013;entryY=0.511;entryDx=0;entryDy=0;entryPerimeter=0;fillColor=#dae8fc;strokeColor=#6c8ebf;endArrow=none;endFill=0;" edge="1" parent="1" source="3mktC0v0Y3BB0U0McoGT-21" target="3mktC0v0Y3BB0U0McoGT-14">
          <mxGeometry relative="1" as="geometry" />
        </mxCell>
        <mxCell id="3mktC0v0Y3BB0U0McoGT-41" style="edgeStyle=orthogonalEdgeStyle;rounded=0;orthogonalLoop=1;jettySize=auto;html=1;entryX=0.273;entryY=1.039;entryDx=0;entryDy=0;entryPerimeter=0;fillColor=#dae8fc;strokeColor=#6c8ebf;endArrow=none;endFill=0;" edge="1" parent="1" source="3mktC0v0Y3BB0U0McoGT-20" target="3mktC0v0Y3BB0U0McoGT-14">
          <mxGeometry relative="1" as="geometry" />
        </mxCell>
        <mxCell id="3mktC0v0Y3BB0U0McoGT-44" value="&lt;span style=&quot;font-weight: 700;&quot;&gt;nome&lt;/span&gt;" style="ellipse;whiteSpace=wrap;html=1;align=center;spacing=2;verticalAlign=middle;fontSize=16;fillColor=#d5e8d4;strokeColor=#82b366;" vertex="1" parent="1">
          <mxGeometry x="1000" y="429" width="150" height="60" as="geometry" />
        </mxCell>
        <mxCell id="3mktC0v0Y3BB0U0McoGT-46" style="edgeStyle=none;rounded=0;orthogonalLoop=1;jettySize=auto;html=1;entryX=1;entryY=0.5;entryDx=0;entryDy=0;endArrow=none;endFill=0;" edge="1" parent="1" source="3mktC0v0Y3BB0U0McoGT-45" target="3mktC0v0Y3BB0U0McoGT-18">
          <mxGeometry relative="1" as="geometry" />
        </mxCell>
        <mxCell id="3mktC0v0Y3BB0U0McoGT-48" value="" style="edgeStyle=none;rounded=0;orthogonalLoop=1;jettySize=auto;html=1;endArrow=none;endFill=0;fillColor=#d5e8d4;strokeColor=#82b366;" edge="1" parent="1" source="3mktC0v0Y3BB0U0McoGT-45" target="3mktC0v0Y3BB0U0McoGT-18">
          <mxGeometry relative="1" as="geometry" />
        </mxCell>
        <mxCell id="3mktC0v0Y3BB0U0McoGT-45" value="&lt;span&gt;&lt;b&gt;&lt;u&gt;identificador&lt;/u&gt;&lt;/b&gt;&lt;/span&gt;" style="ellipse;whiteSpace=wrap;html=1;align=center;spacing=2;verticalAlign=middle;fontSize=16;fillColor=#1ba1e2;strokeColor=#006EAF;fontColor=#ffffff;" vertex="1" parent="1">
          <mxGeometry x="1000" y="340" width="150" height="60" as="geometry" />
        </mxCell>
        <mxCell id="3mktC0v0Y3BB0U0McoGT-49" value="&lt;span&gt;FORNECE&lt;/span&gt;" style="shape=rhombus;perimeter=rhombusPerimeter;whiteSpace=wrap;html=1;align=center;fontFamily=Helvetica;fontSize=16;labelBackgroundColor=none;fillColor=#e1d5e7;strokeColor=#9673a6;fontStyle=1" vertex="1" parent="1">
          <mxGeometry x="270" y="120" width="160" height="80" as="geometry" />
        </mxCell>
        <mxCell id="3mktC0v0Y3BB0U0McoGT-59" style="edgeStyle=none;shape=connector;rounded=0;orthogonalLoop=1;jettySize=auto;html=1;entryX=0.998;entryY=1.044;entryDx=0;entryDy=0;entryPerimeter=0;strokeColor=#9673a6;align=center;verticalAlign=middle;fontFamily=Helvetica;fontSize=11;fontColor=default;labelBackgroundColor=default;endArrow=none;endFill=0;fillColor=#e1d5e7;" edge="1" parent="1" source="3mktC0v0Y3BB0U0McoGT-49" target="3mktC0v0Y3BB0U0McoGT-14">
          <mxGeometry relative="1" as="geometry" />
        </mxCell>
        <mxCell id="3mktC0v0Y3BB0U0McoGT-61" value="1" style="edgeLabel;html=1;align=center;verticalAlign=middle;resizable=0;points=[];fontFamily=Helvetica;fontSize=11;fontColor=default;labelBackgroundColor=default;fontStyle=1" vertex="1" connectable="0" parent="3mktC0v0Y3BB0U0McoGT-59">
          <mxGeometry x="0.1795" relative="1" as="geometry">
            <mxPoint as="offset" />
          </mxGeometry>
        </mxCell>
        <mxCell id="3mktC0v0Y3BB0U0McoGT-60" style="edgeStyle=none;shape=connector;rounded=0;orthogonalLoop=1;jettySize=auto;html=1;entryX=1;entryY=0.039;entryDx=0;entryDy=0;entryPerimeter=0;strokeColor=#9673a6;align=center;verticalAlign=middle;fontFamily=Helvetica;fontSize=11;fontColor=default;labelBackgroundColor=default;endArrow=none;endFill=0;fillColor=#e1d5e7;" edge="1" parent="1" source="3mktC0v0Y3BB0U0McoGT-49" target="3mktC0v0Y3BB0U0McoGT-15">
          <mxGeometry relative="1" as="geometry" />
        </mxCell>
        <mxCell id="3mktC0v0Y3BB0U0McoGT-62" value="&lt;b&gt;N&lt;/b&gt;" style="edgeLabel;html=1;align=center;verticalAlign=middle;resizable=0;points=[];fontFamily=Helvetica;fontSize=11;fontColor=default;labelBackgroundColor=default;" vertex="1" connectable="0" parent="3mktC0v0Y3BB0U0McoGT-60">
          <mxGeometry x="-0.134" relative="1" as="geometry">
            <mxPoint as="offset" />
          </mxGeometry>
        </mxCell>
        <mxCell id="3mktC0v0Y3BB0U0McoGT-70" style="edgeStyle=none;shape=connector;rounded=0;orthogonalLoop=1;jettySize=auto;html=1;entryX=0;entryY=1;entryDx=0;entryDy=0;strokeColor=#23445d;align=center;verticalAlign=middle;fontFamily=Helvetica;fontSize=11;fontColor=default;labelBackgroundColor=default;endArrow=none;endFill=0;fillColor=#bac8d3;" edge="1" parent="1" source="3mktC0v0Y3BB0U0McoGT-64" target="3mktC0v0Y3BB0U0McoGT-18">
          <mxGeometry relative="1" as="geometry" />
        </mxCell>
        <mxCell id="3mktC0v0Y3BB0U0McoGT-78" value="&lt;b&gt;N&lt;/b&gt;" style="edgeLabel;html=1;align=center;verticalAlign=middle;resizable=0;points=[];fontFamily=Helvetica;fontSize=11;fontColor=default;labelBackgroundColor=default;" vertex="1" connectable="0" parent="3mktC0v0Y3BB0U0McoGT-70">
          <mxGeometry x="0.2289" y="-1" relative="1" as="geometry">
            <mxPoint as="offset" />
          </mxGeometry>
        </mxCell>
        <mxCell id="3mktC0v0Y3BB0U0McoGT-71" style="edgeStyle=none;shape=connector;rounded=0;orthogonalLoop=1;jettySize=auto;html=1;entryX=1;entryY=1;entryDx=0;entryDy=0;strokeColor=#23445d;align=center;verticalAlign=middle;fontFamily=Helvetica;fontSize=11;fontColor=default;labelBackgroundColor=default;endArrow=none;endFill=0;fillColor=#bac8d3;" edge="1" parent="1" source="3mktC0v0Y3BB0U0McoGT-64" target="3mktC0v0Y3BB0U0McoGT-15">
          <mxGeometry relative="1" as="geometry" />
        </mxCell>
        <mxCell id="3mktC0v0Y3BB0U0McoGT-77" value="&lt;b&gt;N&lt;/b&gt;" style="edgeLabel;html=1;align=center;verticalAlign=middle;resizable=0;points=[];fontFamily=Helvetica;fontSize=11;fontColor=default;labelBackgroundColor=default;" vertex="1" connectable="0" parent="3mktC0v0Y3BB0U0McoGT-71">
          <mxGeometry x="0.1069" y="-2" relative="1" as="geometry">
            <mxPoint as="offset" />
          </mxGeometry>
        </mxCell>
        <mxCell id="3mktC0v0Y3BB0U0McoGT-64" value="LOJAS_PRODUTOS" style="shape=associativeEntity;whiteSpace=wrap;html=1;align=center;fontFamily=Helvetica;fontSize=11;labelBackgroundColor=none;fillColor=#bac8d3;strokeColor=#23445d;" vertex="1" parent="1">
          <mxGeometry x="530" y="461" width="140" height="60" as="geometry" />
        </mxCell>
        <mxCell id="3mktC0v0Y3BB0U0McoGT-67" value="&lt;span style=&quot;font-weight: 700;&quot;&gt;estoque&lt;/span&gt;" style="ellipse;whiteSpace=wrap;html=1;align=center;spacing=2;verticalAlign=middle;fontSize=16;fillColor=#bac8d3;strokeColor=#23445d;" vertex="1" parent="1">
          <mxGeometry x="525" y="571" width="150" height="60" as="geometry" />
        </mxCell>
        <mxCell id="3mktC0v0Y3BB0U0McoGT-69" style="edgeStyle=none;shape=connector;rounded=0;orthogonalLoop=1;jettySize=auto;html=1;exitX=0.5;exitY=1;exitDx=0;exitDy=0;entryX=0.497;entryY=-0.049;entryDx=0;entryDy=0;entryPerimeter=0;strokeColor=#23445d;align=center;verticalAlign=middle;fontFamily=Helvetica;fontSize=11;fontColor=default;labelBackgroundColor=default;endArrow=none;endFill=0;fillColor=#bac8d3;" edge="1" parent="1" source="3mktC0v0Y3BB0U0McoGT-64" target="3mktC0v0Y3BB0U0McoGT-67">
          <mxGeometry relative="1" as="geometry" />
        </mxCell>
        <mxCell id="3mktC0v0Y3BB0U0McoGT-72" value="&lt;span style=&quot;font-weight: 700;&quot;&gt;&lt;u&gt;loja_id&lt;/u&gt;&lt;/span&gt;" style="ellipse;whiteSpace=wrap;html=1;align=center;spacing=2;verticalAlign=middle;fontSize=16;fillColor=#1ba1e2;strokeColor=#006EAF;fontColor=#ffffff;" vertex="1" parent="1">
          <mxGeometry x="720" y="571" width="150" height="60" as="geometry" />
        </mxCell>
        <mxCell id="3mktC0v0Y3BB0U0McoGT-74" style="edgeStyle=none;shape=connector;rounded=0;orthogonalLoop=1;jettySize=auto;html=1;entryX=0.004;entryY=0.938;entryDx=0;entryDy=0;strokeColor=default;align=center;verticalAlign=middle;fontFamily=Helvetica;fontSize=11;fontColor=default;labelBackgroundColor=default;endArrow=none;endFill=0;entryPerimeter=0;" edge="1" parent="1" source="3mktC0v0Y3BB0U0McoGT-73" target="3mktC0v0Y3BB0U0McoGT-64">
          <mxGeometry relative="1" as="geometry" />
        </mxCell>
        <mxCell id="3mktC0v0Y3BB0U0McoGT-73" value="&lt;span style=&quot;font-weight: 700;&quot;&gt;&lt;u&gt;produto_id&lt;/u&gt;&lt;/span&gt;" style="ellipse;whiteSpace=wrap;html=1;align=center;spacing=2;verticalAlign=middle;fontSize=16;fillColor=#1ba1e2;strokeColor=#006EAF;fontColor=#ffffff;" vertex="1" parent="1">
          <mxGeometry x="350" y="575" width="150" height="60" as="geometry" />
        </mxCell>
        <mxCell id="3mktC0v0Y3BB0U0McoGT-75" style="edgeStyle=none;shape=connector;rounded=0;orthogonalLoop=1;jettySize=auto;html=1;entryX=1.012;entryY=1.064;entryDx=0;entryDy=0;entryPerimeter=0;strokeColor=default;align=center;verticalAlign=middle;fontFamily=Helvetica;fontSize=11;fontColor=default;labelBackgroundColor=default;endArrow=none;endFill=0;" edge="1" parent="1" source="3mktC0v0Y3BB0U0McoGT-72" target="3mktC0v0Y3BB0U0McoGT-64">
          <mxGeometry relative="1" as="geometry" />
        </mxCell>
        <mxCell id="3mktC0v0Y3BB0U0McoGT-80" style="edgeStyle=none;shape=connector;rounded=0;orthogonalLoop=1;jettySize=auto;html=1;entryX=0.967;entryY=0.953;entryDx=0;entryDy=0;entryPerimeter=0;strokeColor=default;align=center;verticalAlign=middle;fontFamily=Helvetica;fontSize=11;fontColor=default;labelBackgroundColor=default;endArrow=none;endFill=0;" edge="1" parent="1" source="3mktC0v0Y3BB0U0McoGT-44" target="3mktC0v0Y3BB0U0McoGT-18">
          <mxGeometry relative="1" as="geometry" />
        </mxCell>
      </root>
    </mxGraphModel>
  </diagram>
</mxfile>
